<mxfile host="app.diagrams.net" modified="2023-11-02T14:02:14.941Z" agent="Mozilla/5.0 (Windows NT 10.0; Win64; x64) AppleWebKit/537.36 (KHTML, like Gecko) Chrome/118.0.0.0 Safari/537.36" etag="Tx-fC0AzLnZRQD0n4pnu" version="22.0.8" type="github">
  <diagram id="C5RBs43oDa-KdzZeNtuy" name="Page-1">
    <mxGraphModel dx="940" dy="588" grid="1" gridSize="10" guides="1" tooltips="1" connect="1" arrows="1" fold="1" page="1" pageScale="1" pageWidth="827" pageHeight="1169" background="none" math="0" shadow="0">
      <root>
        <mxCell id="WIyWlLk6GJQsqaUBKTNV-0" />
        <mxCell id="WIyWlLk6GJQsqaUBKTNV-1" parent="WIyWlLk6GJQsqaUBKTNV-0" />
        <mxCell id="stoT4ud_zyB_b_5Xaafu-106" value="+ name: string&lt;br&gt;" style="rounded=0;whiteSpace=wrap;html=1;align=left;verticalAlign=top;" vertex="1" parent="WIyWlLk6GJQsqaUBKTNV-1">
          <mxGeometry x="360" y="140" width="180" height="40" as="geometry" />
        </mxCell>
        <mxCell id="stoT4ud_zyB_b_5Xaafu-107" value="Guest" style="rounded=0;whiteSpace=wrap;html=1;align=center;verticalAlign=top;" vertex="1" parent="WIyWlLk6GJQsqaUBKTNV-1">
          <mxGeometry x="360" y="120" width="180" height="20" as="geometry" />
        </mxCell>
        <mxCell id="stoT4ud_zyB_b_5Xaafu-108" value="+ makeOrder(menu:Menu):Order&lt;br&gt;+ getDishes():Dishes" style="rounded=0;whiteSpace=wrap;html=1;align=left;verticalAlign=top;" vertex="1" parent="WIyWlLk6GJQsqaUBKTNV-1">
          <mxGeometry x="360" y="180" width="180" height="60" as="geometry" />
        </mxCell>
        <mxCell id="stoT4ud_zyB_b_5Xaafu-109" value="+ name: string&lt;br&gt;" style="rounded=0;whiteSpace=wrap;html=1;align=left;verticalAlign=top;" vertex="1" parent="WIyWlLk6GJQsqaUBKTNV-1">
          <mxGeometry x="560" y="100" width="260" height="30" as="geometry" />
        </mxCell>
        <mxCell id="stoT4ud_zyB_b_5Xaafu-110" value="Waiter" style="rounded=0;whiteSpace=wrap;html=1;align=center;verticalAlign=top;" vertex="1" parent="WIyWlLk6GJQsqaUBKTNV-1">
          <mxGeometry x="560" y="80" width="260" height="20" as="geometry" />
        </mxCell>
        <mxCell id="stoT4ud_zyB_b_5Xaafu-111" value="+createAnOrder(guest:Guest,order:Order):Order&lt;br&gt;+deliverToGuest(dishes:Dishes)" style="rounded=0;whiteSpace=wrap;html=1;align=left;verticalAlign=top;" vertex="1" parent="WIyWlLk6GJQsqaUBKTNV-1">
          <mxGeometry x="560" y="130" width="260" height="60" as="geometry" />
        </mxCell>
        <mxCell id="stoT4ud_zyB_b_5Xaafu-112" value="- numberOfÐ¡ooks: integer" style="rounded=0;whiteSpace=wrap;html=1;align=left;verticalAlign=top;" vertex="1" parent="WIyWlLk6GJQsqaUBKTNV-1">
          <mxGeometry x="90" y="100" width="250" height="30" as="geometry" />
        </mxCell>
        <mxCell id="stoT4ud_zyB_b_5Xaafu-113" value="Kitchen" style="rounded=0;whiteSpace=wrap;html=1;align=center;verticalAlign=top;" vertex="1" parent="WIyWlLk6GJQsqaUBKTNV-1">
          <mxGeometry x="90" y="80" width="250" height="20" as="geometry" />
        </mxCell>
        <mxCell id="stoT4ud_zyB_b_5Xaafu-114" value="+ cookOrder(order:Order,menu:Menu):Dishes&lt;br&gt;" style="rounded=0;whiteSpace=wrap;html=1;align=left;verticalAlign=top;" vertex="1" parent="WIyWlLk6GJQsqaUBKTNV-1">
          <mxGeometry x="90" y="130" width="250" height="30" as="geometry" />
        </mxCell>
        <mxCell id="stoT4ud_zyB_b_5Xaafu-115" value="+ totalprice: integer&lt;br&gt;+ numberOfDishes: integer&lt;br&gt;+ dishes: List&amp;lt;Dishes&amp;gt;" style="rounded=0;whiteSpace=wrap;html=1;align=left;verticalAlign=top;" vertex="1" parent="WIyWlLk6GJQsqaUBKTNV-1">
          <mxGeometry x="320" y="300" width="160" height="60" as="geometry" />
        </mxCell>
        <mxCell id="stoT4ud_zyB_b_5Xaafu-116" value="Order" style="rounded=0;whiteSpace=wrap;html=1;align=center;verticalAlign=top;" vertex="1" parent="WIyWlLk6GJQsqaUBKTNV-1">
          <mxGeometry x="320" y="280" width="160" height="20" as="geometry" />
        </mxCell>
        <mxCell id="stoT4ud_zyB_b_5Xaafu-118" value="nameOfDishes: string;&lt;br&gt;priceOfEachDish: integer" style="rounded=0;whiteSpace=wrap;html=1;align=left;verticalAlign=top;" vertex="1" parent="WIyWlLk6GJQsqaUBKTNV-1">
          <mxGeometry x="120" y="300" width="160" height="40" as="geometry" />
        </mxCell>
        <mxCell id="stoT4ud_zyB_b_5Xaafu-119" value="Menu" style="rounded=0;whiteSpace=wrap;html=1;align=center;verticalAlign=top;" vertex="1" parent="WIyWlLk6GJQsqaUBKTNV-1">
          <mxGeometry x="120" y="280" width="160" height="20" as="geometry" />
        </mxCell>
        <mxCell id="stoT4ud_zyB_b_5Xaafu-124" value="- name: string&lt;br&gt;- adress: string" style="rounded=0;whiteSpace=wrap;html=1;align=left;verticalAlign=top;" vertex="1" parent="WIyWlLk6GJQsqaUBKTNV-1">
          <mxGeometry x="360" y="20" width="160" height="40" as="geometry" />
        </mxCell>
        <mxCell id="stoT4ud_zyB_b_5Xaafu-125" value="Restaraunt" style="rounded=0;whiteSpace=wrap;html=1;align=center;verticalAlign=top;" vertex="1" parent="WIyWlLk6GJQsqaUBKTNV-1">
          <mxGeometry x="360" width="160" height="20" as="geometry" />
        </mxCell>
        <mxCell id="stoT4ud_zyB_b_5Xaafu-129" value="Dishes" style="rounded=0;whiteSpace=wrap;html=1;align=center;verticalAlign=top;" vertex="1" parent="WIyWlLk6GJQsqaUBKTNV-1">
          <mxGeometry x="550" y="280" width="120" height="20" as="geometry" />
        </mxCell>
        <mxCell id="stoT4ud_zyB_b_5Xaafu-130" value="+ name: string" style="rounded=0;whiteSpace=wrap;html=1;align=left;verticalAlign=top;" vertex="1" parent="WIyWlLk6GJQsqaUBKTNV-1">
          <mxGeometry x="550" y="300" width="120" height="30" as="geometry" />
        </mxCell>
      </root>
    </mxGraphModel>
  </diagram>
</mxfile>
